<svg width="24" height="24" viewBox="0 0 24 24" fill="none" xmlns="http://www.w3.org/2000/svg">
    <path d="M3.63161 1.81577C3.63161 2.17489 3.52512 2.52595 3.32559 2.82455C3.12607 3.12315 2.84248 3.35588 2.51068 3.49331C2.17889 3.63075 1.81379 3.6667 1.46156 3.59664C1.10933 3.52658 0.785783 3.35365 0.531838 3.09971C0.277893 2.84577 0.104954 2.52223 0.034891 2.17C-0.0351722 1.81778 0.000786778 1.45269 0.138221 1.1209C0.275655 0.789115 0.508391 0.505531 0.806999 0.306012C1.10561 0.106493 1.45667 0 1.81581 0C2.05426 0 2.29038 0.0469662 2.51068 0.138217C2.73099 0.229468 2.93116 0.363216 3.09977 0.531826C3.26839 0.700435 3.40214 0.900604 3.49339 1.1209C3.58464 1.3412 3.63161 1.57732 3.63161 1.81577Z" fill="#F69321"/>
    <path d="M7.70534 1.81577C7.70534 2.17489 7.59885 2.52595 7.39932 2.82455C7.1998 3.12315 6.91621 3.35588 6.58441 3.49331C6.25262 3.63075 5.88752 3.6667 5.53529 3.59664C5.18306 3.52658 4.85951 3.35365 4.60557 3.09971C4.35162 2.84577 4.17868 2.52223 4.10862 2.17C4.03856 1.81778 4.07452 1.45269 4.21195 1.1209C4.34939 0.789115 4.58212 0.505531 4.88073 0.306012C5.17934 0.106493 5.5304 0 5.88954 0C6.37112 0 6.83297 0.191303 7.1735 0.531826C7.51403 0.872348 7.70534 1.33419 7.70534 1.81577Z" fill="#F69321"/>
    <path d="M11.7791 1.81577C11.7791 2.17489 11.6726 2.52595 11.4731 2.82455C11.2735 3.12315 10.9899 3.35588 10.6581 3.49331C10.3263 3.63075 9.96125 3.6667 9.60902 3.59664C9.25679 3.52658 8.93324 3.35365 8.6793 3.09971C8.42535 2.84577 8.25242 2.52223 8.18235 2.17C8.11229 1.81778 8.14825 1.45269 8.28568 1.1209C8.42312 0.789115 8.65585 0.505531 8.95446 0.306012C9.25307 0.106493 9.60413 0 9.96327 0C10.4448 0 10.9067 0.191303 11.2472 0.531826C11.5878 0.872348 11.7791 1.33419 11.7791 1.81577Z" fill="#5E9732"/>
    <path d="M15.8526 1.81577C15.8526 2.17489 15.7461 2.52595 15.5465 2.82455C15.347 3.12315 15.0634 3.35588 14.7316 3.49331C14.3998 3.63075 14.0347 3.6667 13.6825 3.59664C13.3303 3.52658 13.0067 3.35365 12.7528 3.09971C12.4988 2.84577 12.3259 2.52223 12.2558 2.17C12.1858 1.81778 12.2217 1.45269 12.3592 1.1209C12.4966 0.789115 12.7293 0.505531 13.0279 0.306012C13.3266 0.106493 13.6776 0 14.0368 0C14.5183 0 14.9802 0.191303 15.3207 0.531826C15.6612 0.872348 15.8526 1.33419 15.8526 1.81577Z" fill="#5E9732"/>
    <path d="M19.9263 1.81577C19.9263 2.17489 19.8198 2.52595 19.6203 2.82455C19.4207 3.12315 19.1372 3.35588 18.8054 3.49331C18.4736 3.63075 18.1085 3.6667 17.7562 3.59664C17.404 3.52658 17.0805 3.35365 16.8265 3.09971C16.5726 2.84577 16.3996 2.52223 16.3296 2.17C16.2595 1.81778 16.2955 1.45269 16.4329 1.1209C16.5703 0.789115 16.8031 0.505531 17.1017 0.306012C17.4003 0.106493 17.7514 0 18.1105 0C18.5921 0 19.0539 0.191303 19.3945 0.531826C19.735 0.872348 19.9263 1.33419 19.9263 1.81577Z" fill="#5E9732"/>
    <path d="M24 1.81577C24 2.17489 23.8935 2.52595 23.694 2.82455C23.4945 3.12315 23.2109 3.35588 22.8791 3.49331C22.5473 3.63075 22.1822 3.6667 21.83 3.59664C21.4777 3.52658 21.1542 3.35365 20.9002 3.09971C20.6463 2.84577 20.4734 2.52223 20.4033 2.17C20.3332 1.81778 20.3692 1.45269 20.5066 1.1209C20.6441 0.789115 20.8768 0.505531 21.1754 0.306012C21.474 0.106493 21.8251 0 22.1842 0C22.6658 0 23.1277 0.191303 23.4682 0.531826C23.8087 0.872348 24 1.33419 24 1.81577Z" fill="#5E9732"/>
    <path d="M3.63161 5.88939C3.63161 6.24851 3.52512 6.59957 3.32559 6.89818C3.12607 7.19678 2.84248 7.42951 2.51068 7.56694C2.17889 7.70437 1.81379 7.74033 1.46156 7.67027C1.10933 7.6002 0.785783 7.42727 0.531838 7.17333C0.277893 6.91939 0.104954 6.59585 0.034891 6.24363C-0.0351722 5.8914 0.000786778 5.52631 0.138221 5.19453C0.275655 4.86274 0.508391 4.57915 0.806999 4.37964C1.10561 4.18012 1.45667 4.07362 1.81581 4.07362C2.05426 4.07362 2.29038 4.12059 2.51068 4.21184C2.73099 4.30309 2.93116 4.43684 3.09977 4.60545C3.26839 4.77406 3.40214 4.97423 3.49339 5.19453C3.58464 5.41482 3.63161 5.65094 3.63161 5.88939Z" fill="#F69321"/>
    <path d="M7.70534 5.88939C7.70534 6.24851 7.59885 6.59957 7.39932 6.89818C7.1998 7.19678 6.91621 7.42951 6.58441 7.56694C6.25262 7.70437 5.88752 7.74033 5.53529 7.67027C5.18306 7.6002 4.85951 7.42727 4.60557 7.17333C4.35162 6.91939 4.17868 6.59585 4.10862 6.24363C4.03856 5.8914 4.07452 5.52631 4.21195 5.19453C4.34939 4.86274 4.58212 4.57915 4.88073 4.37964C5.17934 4.18012 5.5304 4.07362 5.88954 4.07362C6.37112 4.07362 6.83297 4.26493 7.1735 4.60545C7.51403 4.94597 7.70534 5.40782 7.70534 5.88939Z" fill="#F69321"/>
    <path d="M11.7791 5.88939C11.7791 6.24851 11.6726 6.59957 11.4731 6.89818C11.2735 7.19678 10.9899 7.42951 10.6581 7.56694C10.3263 7.70437 9.96125 7.74033 9.60902 7.67027C9.25679 7.6002 8.93324 7.42727 8.6793 7.17333C8.42535 6.91939 8.25242 6.59585 8.18235 6.24363C8.11229 5.8914 8.14825 5.52631 8.28568 5.19453C8.42312 4.86274 8.65585 4.57915 8.95446 4.37964C9.25307 4.18012 9.60413 4.07362 9.96327 4.07362C10.4448 4.07362 10.9067 4.26493 11.2472 4.60545C11.5878 4.94597 11.7791 5.40782 11.7791 5.88939Z" fill="#F69321"/>
    <path d="M15.8526 5.88939C15.8526 6.24851 15.7461 6.59957 15.5465 6.89818C15.347 7.19678 15.0634 7.42951 14.7316 7.56694C14.3998 7.70437 14.0347 7.74033 13.6825 7.67027C13.3303 7.6002 13.0067 7.42727 12.7528 7.17333C12.4988 6.91939 12.3259 6.59585 12.2558 6.24363C12.1858 5.8914 12.2217 5.52631 12.3592 5.19453C12.4966 4.86274 12.7293 4.57915 13.0279 4.37964C13.3266 4.18012 13.6776 4.07362 14.0368 4.07362C14.5183 4.07362 14.9802 4.26493 15.3207 4.60545C15.6612 4.94597 15.8526 5.40782 15.8526 5.88939Z" fill="#5E9732"/>
    <path d="M19.9263 5.88939C19.9263 6.24851 19.8198 6.59957 19.6203 6.89818C19.4207 7.19678 19.1372 7.42951 18.8054 7.56694C18.4736 7.70437 18.1085 7.74033 17.7562 7.67027C17.404 7.6002 17.0805 7.42727 16.8265 7.17333C16.5726 6.91939 16.3996 6.59585 16.3296 6.24363C16.2595 5.8914 16.2955 5.52631 16.4329 5.19453C16.5703 4.86274 16.8031 4.57915 17.1017 4.37964C17.4003 4.18012 17.7514 4.07362 18.1105 4.07362C18.5921 4.07362 19.0539 4.26493 19.3945 4.60545C19.735 4.94597 19.9263 5.40782 19.9263 5.88939Z" fill="#5E9732"/>
    <path d="M24 5.88939C24 6.24851 23.8935 6.59957 23.694 6.89818C23.4945 7.19678 23.2109 7.42951 22.8791 7.56694C22.5473 7.70437 22.1822 7.74033 21.83 7.67027C21.4777 7.6002 21.1542 7.42727 20.9002 7.17333C20.6463 6.91939 20.4734 6.59585 20.4033 6.24363C20.3332 5.8914 20.3692 5.52631 20.5066 5.19453C20.6441 4.86274 20.8768 4.57915 21.1754 4.37964C21.474 4.18012 21.8251 4.07362 22.1842 4.07362C22.6658 4.07362 23.1277 4.26493 23.4682 4.60545C23.8087 4.94597 24 5.40782 24 5.88939Z" fill="#5E9732"/>
    <path d="M3.63161 9.9629C3.63161 10.322 3.52512 10.6731 3.32559 10.9717C3.12607 11.2703 2.84248 11.503 2.51068 11.6404C2.17889 11.7779 1.81379 11.8138 1.46156 11.7438C1.10933 11.6737 0.785783 11.5008 0.531838 11.2468C0.277893 10.9929 0.104954 10.6694 0.034891 10.3171C-0.0351722 9.96491 0.000786778 9.59982 0.138221 9.26803C0.275655 8.93625 0.508391 8.65266 0.806999 8.45314C1.10561 8.25363 1.45667 8.14713 1.81581 8.14713C2.05426 8.14713 2.29038 8.1941 2.51068 8.28535C2.73099 8.3766 2.93116 8.51035 3.09977 8.67896C3.26839 8.84757 3.40214 9.04774 3.49339 9.26803C3.58464 9.48833 3.63161 9.72445 3.63161 9.9629Z" fill="#F69321"/>
    <path d="M7.70534 9.9629C7.70534 10.322 7.59885 10.6731 7.39932 10.9717C7.1998 11.2703 6.91621 11.503 6.58441 11.6404C6.25262 11.7779 5.88752 11.8138 5.53529 11.7438C5.18306 11.6737 4.85951 11.5008 4.60557 11.2468C4.35162 10.9929 4.17868 10.6694 4.10862 10.3171C4.03856 9.96491 4.07452 9.59982 4.21195 9.26803C4.34939 8.93625 4.58212 8.65266 4.88073 8.45314C5.17934 8.25363 5.5304 8.14713 5.88954 8.14713C6.37112 8.14713 6.83297 8.33844 7.1735 8.67896C7.51403 9.01948 7.70534 9.48133 7.70534 9.9629Z" fill="#F69321"/>
    <path d="M11.7791 9.9629C11.7791 10.322 11.6726 10.6731 11.4731 10.9717C11.2735 11.2703 10.9899 11.503 10.6581 11.6404C10.3263 11.7779 9.96125 11.8138 9.60902 11.7438C9.25679 11.6737 8.93324 11.5008 8.6793 11.2468C8.42535 10.9929 8.25242 10.6694 8.18235 10.3171C8.11229 9.96491 8.14825 9.59982 8.28568 9.26803C8.42312 8.93625 8.65585 8.65266 8.95446 8.45314C9.25307 8.25363 9.60413 8.14713 9.96327 8.14713C10.4448 8.14713 10.9067 8.33844 11.2472 8.67896C11.5878 9.01948 11.7791 9.48133 11.7791 9.9629Z" fill="#5E9732"/>
    <path d="M15.8526 9.9629C15.8526 10.322 15.7461 10.6731 15.5465 10.9717C15.347 11.2703 15.0634 11.503 14.7316 11.6404C14.3998 11.7779 14.0347 11.8138 13.6825 11.7438C13.3303 11.6737 13.0067 11.5008 12.7528 11.2468C12.4988 10.9929 12.3259 10.6694 12.2558 10.3171C12.1858 9.96491 12.2217 9.59982 12.3592 9.26803C12.4966 8.93625 12.7293 8.65266 13.0279 8.45314C13.3266 8.25363 13.6776 8.14713 14.0368 8.14713C14.5183 8.14713 14.9802 8.33844 15.3207 8.67896C15.6612 9.01948 15.8526 9.48133 15.8526 9.9629Z" fill="#5E9732"/>
    <path d="M19.9263 9.9629C19.9263 10.322 19.8198 10.6731 19.6203 10.9717C19.4207 11.2703 19.1372 11.503 18.8054 11.6404C18.4736 11.7779 18.1085 11.8138 17.7562 11.7438C17.404 11.6737 17.0805 11.5008 16.8265 11.2468C16.5726 10.9929 16.3996 10.6694 16.3296 10.3171C16.2595 9.96491 16.2955 9.59982 16.4329 9.26803C16.5703 8.93625 16.8031 8.65266 17.1017 8.45314C17.4003 8.25363 17.7514 8.14713 18.1105 8.14713C18.5921 8.14713 19.0539 8.33844 19.3945 8.67896C19.735 9.01948 19.9263 9.48133 19.9263 9.9629Z" fill="#5E9732"/>
    <path d="M24 9.9629C24 10.322 23.8935 10.6731 23.694 10.9717C23.4945 11.2703 23.2109 11.503 22.8791 11.6404C22.5473 11.7779 22.1822 11.8138 21.83 11.7438C21.4777 11.6737 21.1542 11.5008 20.9002 11.2468C20.6463 10.9929 20.4734 10.6694 20.4033 10.3171C20.3332 9.96491 20.3692 9.59982 20.5066 9.26803C20.6441 8.93625 20.8768 8.65266 21.1754 8.45314C21.474 8.25363 21.8251 8.14713 22.1842 8.14713C22.6658 8.14713 23.1277 8.33844 23.4682 8.67896C23.8087 9.01948 24 9.48133 24 9.9629Z" fill="#5E9732"/>
    <path d="M3.63161 14.037C3.63152 14.3961 3.52494 14.7471 3.32536 15.0457C3.12578 15.3442 2.84215 15.5769 2.51035 15.7142C2.17855 15.8516 1.81347 15.8875 1.46127 15.8173C1.10907 15.7472 0.785565 15.5743 0.531668 15.3203C0.277771 15.0663 0.10488 14.7428 0.0348559 14.3906C-0.0351684 14.0384 0.00081858 13.6733 0.138267 13.3415C0.275715 13.0098 0.508451 12.7262 0.807048 12.5267C1.10565 12.3272 1.45669 12.2208 1.81581 12.2208C2.0543 12.2208 2.29046 12.2677 2.5108 12.359C2.73113 12.4503 2.93132 12.5841 3.09994 12.7528C3.26856 12.9214 3.4023 13.1216 3.49353 13.342C3.58475 13.5623 3.63167 13.7985 3.63161 14.037Z" fill="#F69321"/>
    <path d="M7.70534 14.037C7.70525 14.3961 7.59867 14.7471 7.39909 15.0457C7.19951 15.3442 6.91589 15.5769 6.58408 15.7142C6.25228 15.8516 5.8872 15.8875 5.535 15.8173C5.1828 15.7472 4.8593 15.5743 4.6054 15.3203C4.3515 15.0663 4.17861 14.7428 4.10859 14.3906C4.03856 14.0384 4.07455 13.6733 4.212 13.3415C4.34944 13.0098 4.58218 12.7262 4.88078 12.5267C5.17938 12.3272 5.53042 12.2208 5.88954 12.2208C6.12803 12.2208 6.36419 12.2677 6.58453 12.359C6.80486 12.4503 7.00505 12.5841 7.17367 12.7528C7.34229 12.9214 7.47603 13.1216 7.56726 13.342C7.65848 13.5623 7.7054 13.7985 7.70534 14.037Z" fill="#5E9732"/>
    <path d="M11.7791 14.037C11.779 14.3961 11.6724 14.7471 11.4728 15.0457C11.2732 15.3442 10.9896 15.5769 10.6578 15.7142C10.326 15.8516 9.96093 15.8875 9.60873 15.8173C9.25653 15.7472 8.93303 15.5743 8.67913 15.3203C8.42523 15.0663 8.25234 14.7428 8.18232 14.3906C8.11229 14.0384 8.14828 13.6733 8.28573 13.3415C8.42318 13.0098 8.65591 12.7262 8.95451 12.5267C9.25311 12.3272 9.60415 12.2208 9.96327 12.2208C10.2018 12.2208 10.4379 12.2677 10.6583 12.359C10.8786 12.4503 11.0788 12.5841 11.2474 12.7528C11.416 12.9214 11.5498 13.1216 11.641 13.342C11.7322 13.5623 11.7791 13.7985 11.7791 14.037Z" fill="#5E9732"/>
    <path d="M15.8526 14.037C15.8525 14.3961 15.7459 14.7471 15.5463 15.0457C15.3467 15.3442 15.0631 15.5769 14.7313 15.7142C14.3995 15.8516 14.0344 15.8875 13.6822 15.8173C13.33 15.7472 13.0065 15.5743 12.7526 15.3203C12.4987 15.0663 12.3258 14.7428 12.2558 14.3906C12.1858 14.0384 12.2218 13.6733 12.3592 13.3415C12.4967 13.0098 12.7294 12.7262 13.028 12.5267C13.3266 12.3272 13.6776 12.2208 14.0368 12.2208C14.2752 12.2208 14.5114 12.2677 14.7317 12.359C14.9521 12.4503 15.1523 12.5841 15.3209 12.7528C15.4895 12.9214 15.6233 13.1216 15.7145 13.342C15.8057 13.5623 15.8526 13.7985 15.8526 14.037Z" fill="#5E9732"/>
    <path d="M19.9263 14.037C19.9262 14.3961 19.8196 14.7471 19.62 15.0457C19.4205 15.3442 19.1368 15.5769 18.805 15.7142C18.4732 15.8516 18.1081 15.8875 17.7559 15.8173C17.4037 15.7472 17.0802 15.5743 16.8263 15.3203C16.5724 15.0663 16.3996 14.7428 16.3295 14.3906C16.2595 14.0384 16.2955 13.6733 16.4329 13.3415C16.5704 13.0098 16.8031 12.7262 17.1017 12.5267C17.4003 12.3272 17.7514 12.2208 18.1105 12.2208C18.349 12.2208 18.5851 12.2677 18.8055 12.359C19.0258 12.4503 19.226 12.5841 19.3946 12.7528C19.5632 12.9214 19.697 13.1216 19.7882 13.342C19.8794 13.5623 19.9264 13.7985 19.9263 14.037Z" fill="#F69321"/>
    <path d="M24 14.037C23.9999 14.3961 23.8933 14.7471 23.6938 15.0457C23.4942 15.3442 23.2106 15.5769 22.8788 15.7142C22.547 15.8516 22.1819 15.8875 21.8297 15.8173C21.4775 15.7472 21.154 15.5743 20.9001 15.3203C20.6462 15.0663 20.4733 14.7428 20.4033 14.3906C20.3332 14.0384 20.3692 13.6733 20.5067 13.3415C20.6441 13.0098 20.8769 12.7262 21.1755 12.5267C21.4741 12.3272 21.8251 12.2208 22.1842 12.2208C22.4227 12.2208 22.6589 12.2677 22.8792 12.359C23.0995 12.4503 23.2997 12.5841 23.4684 12.7528C23.637 12.9214 23.7707 13.1216 23.8619 13.342C23.9532 13.5623 24.0001 13.7985 24 14.037Z" fill="#5E9732"/>
    <path d="M3.63161 18.1106C3.63152 18.4697 3.52494 18.8207 3.32536 19.1193C3.12578 19.4178 2.84215 19.6505 2.51035 19.7878C2.17855 19.9252 1.81347 19.9611 1.46127 19.891C1.10907 19.8208 0.785565 19.6479 0.531668 19.3939C0.277771 19.14 0.10488 18.8164 0.0348559 18.4642C-0.0351684 18.112 0.00081858 17.7469 0.138267 17.4152C0.275715 17.0834 0.508451 16.7999 0.807048 16.6004C1.10565 16.4009 1.45669 16.2944 1.81581 16.2944C2.0543 16.2944 2.29046 16.3414 2.5108 16.4326C2.73113 16.5239 2.93132 16.6577 3.09994 16.8264C3.26856 16.995 3.4023 17.1953 3.49353 17.4156C3.58475 17.636 3.63167 17.8721 3.63161 18.1106Z" fill="#5E9732"/>
    <path d="M7.70534 18.1106C7.70525 18.4697 7.59867 18.8207 7.39909 19.1193C7.19951 19.4178 6.91589 19.6505 6.58408 19.7878C6.25228 19.9252 5.8872 19.9611 5.535 19.891C5.1828 19.8208 4.8593 19.6479 4.6054 19.3939C4.3515 19.14 4.17861 18.8164 4.10859 18.4642C4.03856 18.112 4.07455 17.7469 4.212 17.4152C4.34944 17.0834 4.58218 16.7999 4.88078 16.6004C5.17938 16.4009 5.53042 16.2944 5.88954 16.2944C6.12803 16.2944 6.36419 16.3414 6.58453 16.4326C6.80486 16.5239 7.00505 16.6577 7.17367 16.8264C7.34229 16.995 7.47603 17.1953 7.56726 17.4156C7.65848 17.636 7.7054 17.8721 7.70534 18.1106Z" fill="#5E9732"/>
    <path d="M11.7791 18.1106C11.779 18.4697 11.6724 18.8207 11.4728 19.1193C11.2732 19.4178 10.9896 19.6505 10.6578 19.7878C10.326 19.9252 9.96093 19.9611 9.60873 19.891C9.25653 19.8208 8.93303 19.6479 8.67913 19.3939C8.42523 19.14 8.25234 18.8164 8.18232 18.4642C8.11229 18.112 8.14828 17.7469 8.28573 17.4152C8.42318 17.0834 8.65591 16.7999 8.95451 16.6004C9.25311 16.4009 9.60415 16.2944 9.96327 16.2944C10.2018 16.2944 10.4379 16.3414 10.6583 16.4326C10.8786 16.5239 11.0788 16.6577 11.2474 16.8264C11.416 16.995 11.5498 17.1953 11.641 17.4156C11.7322 17.636 11.7791 17.8721 11.7791 18.1106Z" fill="#5E9732"/>
    <path d="M15.8526 18.1106C15.8525 18.4697 15.7459 18.8207 15.5463 19.1193C15.3467 19.4178 15.0631 19.6505 14.7313 19.7878C14.3995 19.9252 14.0344 19.9611 13.6822 19.891C13.33 19.8208 13.0065 19.6479 12.7526 19.3939C12.4987 19.14 12.3258 18.8164 12.2558 18.4642C12.1858 18.112 12.2218 17.7469 12.3592 17.4152C12.4967 17.0834 12.7294 16.7999 13.028 16.6004C13.3266 16.4009 13.6776 16.2944 14.0368 16.2944C14.2752 16.2944 14.5114 16.3414 14.7317 16.4326C14.9521 16.5239 15.1523 16.6577 15.3209 16.8264C15.4895 16.995 15.6233 17.1953 15.7145 17.4156C15.8057 17.636 15.8526 17.8721 15.8526 18.1106Z" fill="#F69321"/>
    <path d="M19.9263 18.1106C19.9262 18.4697 19.8196 18.8207 19.62 19.1193C19.4205 19.4178 19.1368 19.6505 18.805 19.7878C18.4732 19.9252 18.1081 19.9611 17.7559 19.891C17.4037 19.8208 17.0802 19.6479 16.8263 19.3939C16.5724 19.14 16.3996 18.8164 16.3295 18.4642C16.2595 18.112 16.2955 17.7469 16.4329 17.4152C16.5704 17.0834 16.8031 16.7999 17.1017 16.6004C17.4003 16.4009 17.7514 16.2944 18.1105 16.2944C18.349 16.2944 18.5851 16.3414 18.8055 16.4326C19.0258 16.5239 19.226 16.6577 19.3946 16.8264C19.5632 16.995 19.697 17.1953 19.7882 17.4156C19.8794 17.636 19.9264 17.8721 19.9263 18.1106Z" fill="#F69321"/>
    <path d="M24 18.1106C23.9999 18.4697 23.8933 18.8207 23.6938 19.1193C23.4942 19.4178 23.2106 19.6505 22.8788 19.7878C22.547 19.9252 22.1819 19.9611 21.8297 19.891C21.4775 19.8208 21.154 19.6479 20.9001 19.3939C20.6462 19.14 20.4733 18.8164 20.4033 18.4642C20.3332 18.112 20.3692 17.7469 20.5067 17.4152C20.6441 17.0834 20.8769 16.7999 21.1755 16.6004C21.4741 16.4009 21.8251 16.2944 22.1842 16.2944C22.4227 16.2944 22.6589 16.3414 22.8792 16.4326C23.0995 16.5239 23.2997 16.6577 23.4684 16.8264C23.637 16.995 23.7707 17.1953 23.8619 17.4156C23.9532 17.636 24.0001 17.8721 24 18.1106Z" fill="#F69321"/>
    <path d="M3.63161 22.1842C3.63161 22.5434 3.52512 22.8944 3.32559 23.193C3.12607 23.4916 2.84248 23.7244 2.51068 23.8618C2.17889 23.9992 1.81379 24.0352 1.46156 23.9651C1.10933 23.8951 0.785783 23.7221 0.531838 23.4682C0.277893 23.2142 0.104954 22.8907 0.034891 22.5385C-0.0351722 22.1863 0.000786778 21.8212 0.138221 21.4894C0.275655 21.1576 0.508391 20.874 0.806999 20.6745C1.10561 20.475 1.45667 20.3685 1.81581 20.3685C2.05426 20.3685 2.29038 20.4154 2.51068 20.5067C2.73099 20.5979 2.93116 20.7317 3.09977 20.9003C3.26839 21.0689 3.40214 21.2691 3.49339 21.4894C3.58464 21.7097 3.63161 21.9458 3.63161 22.1842Z" fill="#F69321"/>
    <path d="M7.70534 22.1842C7.70534 22.5434 7.59885 22.8944 7.39932 23.193C7.1998 23.4916 6.91621 23.7244 6.58441 23.8618C6.25262 23.9992 5.88752 24.0352 5.53529 23.9651C5.18306 23.8951 4.85951 23.7221 4.60557 23.4682C4.35162 23.2142 4.17868 22.8907 4.10862 22.5385C4.03856 22.1863 4.07452 21.8212 4.21195 21.4894C4.34939 21.1576 4.58212 20.874 4.88073 20.6745C5.17934 20.475 5.5304 20.3685 5.88954 20.3685C6.37112 20.3685 6.83297 20.5598 7.1735 20.9003C7.51403 21.2408 7.70534 21.7027 7.70534 22.1842Z" fill="#5E9732"/>
    <path d="M11.7791 22.1842C11.7791 22.5434 11.6726 22.8944 11.4731 23.193C11.2735 23.4916 10.9899 23.7244 10.6581 23.8618C10.3263 23.9992 9.96125 24.0352 9.60902 23.9651C9.25679 23.8951 8.93324 23.7221 8.6793 23.4682C8.42535 23.2142 8.25242 22.8907 8.18235 22.5385C8.11229 22.1863 8.14825 21.8212 8.28568 21.4894C8.42312 21.1576 8.65585 20.874 8.95446 20.6745C9.25307 20.475 9.60413 20.3685 9.96327 20.3685C10.4448 20.3685 10.9067 20.5598 11.2472 20.9003C11.5878 21.2408 11.7791 21.7027 11.7791 22.1842Z" fill="#F69321"/>
    <path d="M15.8526 22.1842C15.8526 22.5434 15.7461 22.8944 15.5465 23.193C15.347 23.4916 15.0634 23.7244 14.7316 23.8618C14.3998 23.9992 14.0347 24.0352 13.6825 23.9651C13.3303 23.8951 13.0067 23.7221 12.7528 23.4682C12.4988 23.2142 12.3259 22.8907 12.2558 22.5385C12.1858 22.1863 12.2217 21.8212 12.3592 21.4894C12.4966 21.1576 12.7293 20.874 13.0279 20.6745C13.3266 20.475 13.6776 20.3685 14.0368 20.3685C14.5183 20.3685 14.9802 20.5598 15.3207 20.9003C15.6612 21.2408 15.8526 21.7027 15.8526 22.1842Z" fill="#F69321"/>
    <path d="M19.9263 22.1842C19.9263 22.5434 19.8198 22.8944 19.6203 23.193C19.4207 23.4916 19.1372 23.7244 18.8054 23.8618C18.4736 23.9992 18.1085 24.0352 17.7562 23.9651C17.404 23.8951 17.0805 23.7221 16.8265 23.4682C16.5726 23.2142 16.3996 22.8907 16.3296 22.5385C16.2595 22.1863 16.2955 21.8212 16.4329 21.4894C16.5703 21.1576 16.8031 20.874 17.1017 20.6745C17.4003 20.475 17.7514 20.3685 18.1105 20.3685C18.5921 20.3685 19.0539 20.5598 19.3945 20.9003C19.735 21.2408 19.9263 21.7027 19.9263 22.1842Z" fill="#F69321"/>
    <path d="M24 22.1842C24 22.5434 23.8935 22.8944 23.694 23.193C23.4945 23.4916 23.2109 23.7244 22.8791 23.8618C22.5473 23.9992 22.1822 24.0352 21.83 23.9651C21.4777 23.8951 21.1542 23.7221 20.9002 23.4682C20.6463 23.2142 20.4734 22.8907 20.4033 22.5385C20.3332 22.1863 20.3692 21.8212 20.5066 21.4894C20.6441 21.1576 20.8768 20.874 21.1754 20.6745C21.474 20.475 21.8251 20.3685 22.1842 20.3685C22.6658 20.3685 23.1277 20.5598 23.4682 20.9003C23.8087 21.2408 24 21.7027 24 22.1842Z" fill="#F69321"/>
</svg>
