<svg width="241" height="57" viewBox="0 0 241 57" fill="none" xmlns="http://www.w3.org/2000/svg">
    <g clip-path="url(#clip0_118_4722)">
        <path d="M9.49206 46.101H0V6.33746H9.49206V46.101Z" fill="#5E9732"/>
        <path d="M44.1252 46.101H34.7472V31.2948C34.7472 27.5465 34.1581 24.7237 30.3005 24.7237C26.4428 24.7237 25.1411 27.9485 25.1411 32.0426V46.101H15.7726V17.6945H25.1411L25.0841 21.7886H25.1981C26.7754 19.2555 29.4168 17.1804 33.5785 17.1804C41.9589 17.1804 44.1252 22.4803 44.1252 29.3412V46.1103V46.101Z" fill="#5E9732"/>
        <path d="M55.2516 52.962C52.9903 52.962 51.147 51.1579 51.147 48.9239V4.03805C51.147 1.81338 52.9808 0 55.2516 0V52.962Z" fill="#5E9732"/>
        <path d="M86.2456 43.5118C83.3762 45.7552 79.623 46.7927 75.2903 46.7927C69.4279 46.7927 64.221 43.7922 60.9335 40.8011L65.6177 33.9962C68.5442 36.9967 73.0575 39.0064 76.1645 39.0064C79.2715 39.0064 81.5519 37.5669 81.5519 34.9123C81.5519 32.2576 78.5684 31.164 76.8106 30.5284C75.0528 29.8927 72.0028 28.8552 70.6631 28.285C69.6654 27.827 67.6131 27.0792 65.8553 25.406C64.0975 23.7889 62.6913 21.4895 62.6913 17.7412C62.6913 13.9929 64.5631 10.9364 66.91 9.03886C69.1903 7.14135 72.8864 5.87012 77.5707 5.87012C82.255 5.87012 87.6424 8.05739 90.3978 10.7681L86.3597 17.2832C84.0128 14.9744 80.3832 13.2452 77.3427 13.2452C74.3022 13.2452 72.0693 14.3949 72.0693 16.8158C72.0693 19.2368 74.3497 20.1622 76.174 20.8539C77.9318 21.5456 80.9153 22.5831 82.2075 23.0972C83.3192 23.4992 86.0176 24.5367 87.8324 26.3221C89.5332 27.9952 90.9964 30.4162 90.9964 33.9869C90.9964 37.7912 89.1816 41.2497 86.2551 43.4931L86.2456 43.5118Z" fill="#5E9732"/>
        <path d="M122.713 17.6945L109.829 48.8118C107.719 53.8874 105.372 57 100.46 57C95.5478 57 92.4312 55.6166 92.4312 55.6166L94.3031 48.8118C94.3031 48.8118 96.3554 49.5596 97.7616 49.5596C98.8163 49.5596 99.814 49.5596 100.574 47.7181L101.629 45.2411L90.2079 17.6945H99.9945L106.551 35.9592L113.05 17.6945H122.713Z" fill="#5E9732"/>
        <path d="M153.289 46.101H143.911V31.2948C143.911 27.5465 143.322 24.7237 139.464 24.7237C135.606 24.7237 134.305 27.9485 134.305 32.0426V46.101H124.936V17.6945H134.305L134.248 21.7886H134.362C135.939 19.2555 138.58 17.1804 142.742 17.1804C151.122 17.1804 153.289 22.4803 153.289 29.3412V46.1103V46.101Z" fill="#5E9732"/>
        <path d="M183.304 43.3342C183.01 43.5679 179.969 46.7366 172.292 46.7366C164.615 46.7366 157.061 41.4367 157.061 31.9865C157.061 22.5364 164.501 17.1804 172.406 17.1804C179.789 17.1804 183.124 20.1809 183.124 20.1809L181.071 27.154C180.254 26.5183 177.67 24.6208 173.632 24.6208C169.593 24.6208 166.486 27.3316 166.486 31.8276C166.486 36.3237 169.356 39.1466 173.755 39.1466C178.154 39.1466 181.081 36.3798 181.081 36.3798L183.304 43.3529V43.3342Z" fill="#5E9732"/>
        <path d="M238.567 48.3864C237.692 48.3864 236.989 47.6947 236.989 46.8347V10.2867C236.989 9.42675 237.692 8.73505 238.567 8.73505C239.441 8.73505 240.144 9.42675 240.144 10.2867V46.8347C240.144 47.6947 239.441 48.3864 238.567 48.3864Z" fill="#6B7280"/>
        <path d="M218.224 33.6176H205.035L213.444 13.3339L227.659 47.4517C227.896 48.0125 228.447 48.3864 229.074 48.3864H229.417C230.509 48.3864 231.25 47.2834 230.823 46.2926L214.841 9.40805C214.632 8.93133 214.157 8.61353 213.625 8.61353C213.093 8.61353 212.618 8.92199 212.409 9.40805L196.427 46.2926C196 47.2834 196.741 48.3864 197.833 48.3864C198.451 48.3864 199.002 48.0219 199.24 47.461L203.876 36.4873H219.43L218.233 33.6176H218.224Z" fill="#6B7280"/>
    </g>
    <defs>
        <clipPath id="clip0_118_4722">
            <rect width="240.144" height="57" fill="white"/>
        </clipPath>
    </defs>
</svg>
